<?xml version="1.0" standalone="no"?>
<!DOCTYPE svg PUBLIC "-//W3C//DTD SVG 20010904//EN"
 "http://www.w3.org/TR/2001/REC-SVG-20010904/DTD/svg10.dtd">
<svg version="1.0" xmlns="http://www.w3.org/2000/svg"
 width="225.000000pt" height="225.000000pt" viewBox="0 0 225.000000 225.000000"
 preserveAspectRatio="xMidYMid meet">
<metadata>
Created by potrace 1.14, written by Peter Selinger 2001-2017
</metadata>
<g transform="translate(0.000000,225.000000) scale(0.100000,-0.100000)"
fill="#000000" stroke="none">
<path d="M0 2074 l0 -176 380 -386 380 -387 -165 -165 -165 -165 -55 55 -55
55 -62 -63 -63 -62 115 -115 115 -115 -100 -100 c-91 -92 -103 -100 -138 -100
-42 0 -101 -22 -130 -48 -29 -26 -57 -87 -57 -124 0 -39 29 -106 56 -130 28
-25 88 -48 124 -48 35 0 97 29 122 57 26 29 48 88 48 130 0 35 8 47 100 138
l100 100 113 -113 112 -112 63 63 62 62 -52 53 -53 52 165 165 165 165 165
-165 165 -165 -53 -52 -52 -53 62 -62 63 -63 112 112 113 113 100 -100 c92
-91 100 -103 100 -138 0 -42 22 -101 48 -130 89 -99 254 -58 293 73 32 106
-57 219 -171 220 -44 0 -48 3 -145 100 l-100 100 115 115 115 115 -63 62 -62
63 -55 -55 -55 -55 -166 166 -166 166 381 385 381 386 0 176 0 176 -183 0
-182 0 -380 -380 -380 -380 -380 380 -380 380 -183 0 -182 0 0 -176z m643
-352 l357 -357 -58 -58 -57 -57 -358 358 -357 358 0 50 c0 28 3 54 7 57 3 4
29 7 57 7 l51 0 358 -358z m1435 299 l3 -53 -703 -707 -703 -707 -63 60 -63
61 706 703 706 703 57 -3 57 -3 3 -54z m-540 -1184 l162 -162 -63 -63 -64 -63
-162 167 -161 168 57 58 c32 32 60 58 63 58 3 0 78 -73 168 -163z"/>
</g>
</svg>
